Coordinates
version=1
nRows=43
nColumns=12
inDegrees=yes

Units are S.I. units (second, meters, Newtons, ...)
Angles are in degrees

endheader
time	SC_y	SC_z	SC_x	AC_y	AC_z	AC_x	GH_y	GH_z	GH_yy	EL_x	PS_y
       0.0              -11.82          6.363          9.233          38.19          2.907         -16.08          150.0          46.89          163.0          58.29          18.42
   0.01217              -11.82          6.367          9.241          38.19          2.906         -16.08          150.0          46.89          162.9           58.3          18.42
   0.02433              -11.82           6.37          9.249          38.19          2.905         -16.07          150.0           46.9          162.9          58.31          18.43
    0.0365              -11.82          6.374          9.257          38.19          2.905         -16.07          150.0           46.9          162.8          58.33          18.44
   0.04866              -11.83          6.379          9.266          38.19          2.904         -16.06          150.0           46.9          162.8          58.34          18.46
   0.06083              -11.83          6.383          9.275           38.2          2.903         -16.05          150.0          46.91          162.8          58.36          18.47
   0.07299              -11.83          6.388          9.285           38.2          2.902         -16.05          150.0          46.91          162.7          58.37          18.48
   0.08516              -11.83          6.393          9.296           38.2          2.901         -16.04          150.0          46.91          162.6          58.39          18.49
   0.09733              -11.84          6.399          9.307          38.21          2.901         -16.03          150.0          46.92          162.6           58.4          18.51
    0.1095              -11.84          6.405           9.32          38.21            2.9         -16.03          150.0          46.92          162.5          58.42          18.52
    0.1217              -11.84          6.411          9.333          38.21          2.898         -16.02          150.0          46.93          162.5          58.44          18.54
    0.1338              -11.85          6.418          9.347          38.22          2.897         -16.01          150.0          46.93          162.4          58.47          18.56
     0.146              -11.85          6.425          9.363          38.22          2.896          -16.0          150.0          46.94          162.3          58.49          18.58
    0.1582              -11.86          6.433          9.379          38.23          2.895         -15.99          150.0          46.95          162.2          58.51           18.6
    0.1703              -11.86          6.442          9.397          38.23          2.893         -15.98          150.0          46.95          162.1          58.54          18.62
    0.1825              -11.87          6.451          9.417          38.24          2.892         -15.96          150.0          46.96          162.0          58.57          18.64
    0.1947              -11.87          6.462          9.438          38.25           2.89         -15.95          150.0          46.97          161.9           58.6          18.67
    0.2068              -11.88          6.473          9.461          38.25          2.888         -15.94          150.0          46.98          161.8          58.64           18.7
     0.219              -11.89          6.485          9.486          38.26          2.886         -15.92          150.0          46.99          161.7          58.68          18.73
    0.2311               -11.9          6.498          9.514          38.27          2.884          -15.9          150.0           47.0          161.5          58.72          18.76
    0.2433              -11.91          6.513          9.544          38.28          2.881         -15.88          150.0          47.01          161.4          58.77           18.8
    0.2555              -11.92          6.529          9.577          38.29          2.879         -15.86          150.0          47.02          161.2          58.82          18.84
    0.2676              -11.93          6.546          9.614           38.3          2.876         -15.84          150.0          47.04          161.0          58.87          18.89
    0.2798              -11.94          6.566          9.655          38.31          2.872         -15.81          150.0          47.05          160.8          58.94          18.94
     0.292              -11.95          6.588            9.7          38.32          2.869         -15.78          150.0          47.07          160.6          59.01          18.99
    0.3041              -11.97          6.612          9.751          38.34          2.865         -15.75          150.0          47.09          160.3          59.08          19.06
    0.3163              -11.98          6.639          9.808          38.36           2.86         -15.71          150.0          47.11          160.0          59.17          19.13
    0.3285               -12.0           6.67          9.872          38.38          2.855         -15.67          150.0          47.13          159.7          59.27          19.21
    0.3406              -12.02          6.705          9.944           38.4          2.849         -15.63          150.0          47.16          159.3          59.38           19.3
    0.3528              -12.04          6.744          10.03          38.42          2.843         -15.57          150.0          47.19          158.9           59.5           19.4
     0.365              -12.07          6.789          10.12          38.45          2.835         -15.51          150.0          47.23          158.4          59.65          19.51
    0.3771               -12.1          6.841          10.23          38.48          2.826         -15.45          150.0          47.27          157.9          59.81          19.65
    0.3893              -12.14            6.9          10.35          38.52          2.816         -15.37          150.0          47.32          157.3           60.0           19.8
    0.4015              -12.18           6.97          10.49          38.56          2.805         -15.27          150.0          47.37          156.5          60.22          19.98
    0.4136              -12.23           7.05          10.66          38.61          2.791         -15.17          150.0          47.44          155.7          60.48          20.19
    0.4258              -12.28          7.146          10.86          38.67          2.775         -15.04          150.0          47.52          154.6          60.78          20.43
     0.438              -12.35          7.259           11.1          38.74          2.756         -14.89          150.1          47.61          153.4          61.14          20.73
    0.4501              -12.43          7.395          11.38          38.83          2.733         -14.71          150.1          47.72          152.0          61.58          21.08
    0.4623              -12.53           7.56          11.72          38.93          2.706         -14.49          150.1          47.85          150.2           62.1           21.5
    0.4745              -12.65          7.761          12.14          39.05          2.672         -14.22          150.1          48.01          148.1          62.74          22.02
    0.4866               -12.8          8.009          12.65          39.21           2.63         -13.89          150.1          48.21          145.5          63.53          22.66
    0.4988              -12.99          8.318           13.3           39.4          2.578         -13.48          150.2          48.45          142.2          64.51          23.46
     0.511              -13.22          8.708          14.11          39.64          2.513         -12.96          150.2          48.77          138.0          65.75          24.46
